<?xml version="1.0" standalone="no"?><!DOCTYPE svg PUBLIC "-//W3C//DTD SVG 1.1//EN" "http://www.w3.org/Graphics/SVG/1.1/DTD/svg11.dtd"><svg class="icon" width="200px" height="200.00px" viewBox="0 0 1024 1024" version="1.1" xmlns="http://www.w3.org/2000/svg"><path d="M950.935128 127.990748l0 639.95374q0 28.59679-19.454594 50.830611t-49.148447 34.594071-59.168294 18.284393-55.145728 5.997281-55.145728-5.997281-59.168294-18.284393-49.148447-34.594071-19.454594-50.830611 19.454594-50.830611 49.148447-34.594071 59.168294-18.284393 55.145728-5.997281q59.972808 0 109.706356 22.306959l0-306.812108-438.825422 135.45078 0 405.109002q0 28.59679-19.454594 50.830611t-49.148447 34.594071-59.168294 18.284393-55.145728 5.997281-55.145728-5.997281-59.168294-18.284393-49.148447-34.594071-19.454594-50.830611 19.454594-50.830611 49.148447-34.594071 59.168294-18.284393 55.145728-5.997281q59.972808 0 109.706356 22.306959l0-552.554344q0-17.699292 10.82436-32.253669t28.011689-20.259107l475.394207-146.275141q6.874932-2.267265 16.017128-2.267265 22.818922 0 38.83605 16.017128t16.017128 38.83605z" fill="#ffffff" /></svg>